<svg width="45" height="44" viewBox="0 0 45 44" fill="none" xmlns="http://www.w3.org/2000/svg">
<g clip-path="url(#clip0_9_2624)">
<path d="M9.01294 32.968V29.4604L14.9369 32.89L22.2639 26.0308V41.62L9.01294 32.968Z" fill="#0093EB"/>
<path d="M1.92133 23.6929L9.63808 16.6777L22.2654 24.4724L14.9384 31.3317L1.92133 23.6929Z" fill="#0093EB"/>
<path d="M9.63661 16.6773L0.438904 9.66209L13.6898 2.64697L23.0434 8.88261L9.63661 16.6773Z" fill="#0093EB"/>
<path d="M35.5141 33.046L22.2631 41.62V26.0308L29.824 32.5783L35.5141 28.9927V33.046Z" fill="#0093EB"/>
<path d="M29.824 31.0192L22.2631 24.4717L34.9684 16.3652L42.6072 22.9127L29.824 31.0192Z" fill="#0093EB"/>
<path d="M34.9682 16.3655L23.0424 8.88261L32.396 2.64697L44.0879 9.66209L34.9682 16.3655Z" fill="#0093EB"/>
</g>
<defs>
<clipPath id="clip0_9_2624">
<rect width="43.65" height="43.65" fill="white" transform="translate(0.438904 0.308838)"/>
</clipPath>
</defs>
</svg>
