<svg width="44" height="45" viewBox="0 0 44 45" fill="none" xmlns="http://www.w3.org/2000/svg">
<g clip-path="url(#clip0_9_2656)">
<path d="M38.2518 6.22583H5.51434V38.9633H38.2518V6.22583Z" fill="#ECEFF1"/>
<path d="M21.8815 26.0376L38.2503 38.9635V13.4446L21.8815 26.0376Z" fill="#CFD8DC"/>
<path d="M39.6151 6.22607H38.2511L21.8823 19.1519L5.51356 6.22607H4.1495C1.89061 6.22607 0.057312 8.05937 0.057312 10.3183V34.8714C0.057312 37.1303 1.89061 38.9636 4.1495 38.9636H5.51356V13.4447L21.8823 26.035L38.2511 13.442V38.9636H39.6151C41.874 38.9636 43.7073 37.1303 43.7073 34.8714V10.3183C43.7073 8.05937 41.874 6.22607 39.6151 6.22607Z" fill="#F44336"/>
</g>
<defs>
<clipPath id="clip0_9_2656">
<rect width="43.65" height="43.65" fill="white" transform="translate(0.057312 0.769775)"/>
</clipPath>
</defs>
</svg>
