<svg width="45" height="44" viewBox="0 0 45 44" fill="none" xmlns="http://www.w3.org/2000/svg">
<g clip-path="url(#clip0_9_2614)">
<path d="M22.5864 14.0477L13.5271 29.7608H13.5015L18.7477 36.1586L6.97579 41.0977C6.74539 40.9698 6.56625 40.7907 6.46397 40.6115L0.936146 30.375C0.654641 29.8119 0.885048 29.3769 0.961737 29.121L15.7792 3.52962C15.8815 3.37607 16.0351 3.22252 16.2399 3.09448H16.2655L23.866 5.44897L22.5864 14.0477Z" fill="#59C36A"/>
<path d="M44.4496 29.7609L34.1874 36.1588L31.7562 29.7609L22.586 14.0478L16.2649 3.09454C16.4439 2.96658 16.6743 2.88989 16.8791 2.88989H28.3781C28.6341 2.96658 29.1459 2.94099 29.4785 3.52968L44.296 29.121C44.3983 29.3003 44.4496 29.5305 44.4496 29.7609Z" fill="#FFDA2D"/>
<path d="M29.4797 3.53065C29.1472 2.94197 28.6353 2.96756 28.3793 2.89087H22.5872V14.0487L31.7574 29.7618L34.1886 36.1596L44.4508 29.7618C44.4508 29.5314 44.3995 29.3012 44.2972 29.122L29.4797 3.53065Z" fill="#FDBF00"/>
<path d="M44.45 29.761C44.45 29.9912 44.3988 30.2216 44.3221 30.3752L38.7943 40.6117C38.5895 40.9444 38.1034 41.2771 37.6682 41.2771H7.58995C7.38513 41.2771 7.15481 41.2002 6.97575 41.098L13.5016 29.761H44.45Z" fill="#4086F4"/>
<path d="M22.5872 41.2771H37.6691C38.1042 41.2771 38.5903 40.9444 38.7951 40.6117L44.3229 30.3752C44.3996 30.2216 44.4508 29.9912 44.4508 29.761H22.5873V41.2771H22.5872Z" fill="#4175DF"/>
</g>
<defs>
<clipPath id="clip0_9_2614">
<rect width="43.65" height="43.65" fill="white" transform="translate(0.800003 0.258545)"/>
</clipPath>
</defs>
</svg>
