<svg width="44" height="44" viewBox="0 0 44 44" fill="none" xmlns="http://www.w3.org/2000/svg">
<g clip-path="url(#clip0_9_2634)">
<path d="M39.9384 13.1065H4.13171C3.42487 13.1065 2.85291 12.5346 2.85291 11.8277V3.98438C2.85291 1.86888 4.57384 0.147949 6.68933 0.147949H37.3807C39.4962 0.147949 41.2172 1.86888 41.2172 3.98438V11.8277C41.2172 12.5346 40.6452 13.1065 39.9384 13.1065Z" fill="#E3E7EA"/>
<path d="M37.3802 0.147949H22.0345V13.1065H39.9379C40.6447 13.1065 41.2167 12.5346 41.2167 11.8277V3.98438C41.2167 1.86888 39.4957 0.147949 37.3802 0.147949Z" fill="#BABAC0"/>
<path d="M2.80384 27.1732C2.80426 27.1713 2.80443 27.1704 2.80443 27.1704L0.260287 15.0502C0.081254 13.8993 0.388168 12.7483 1.10439 11.9043C1.84601 11.0348 2.92012 10.5488 4.04548 10.5488H39.9545C41.0799 10.5488 42.1541 11.0348 42.8957 11.9043C43.6119 12.7484 43.9188 13.8993 43.7398 14.9991L41.1956 27.1764L43.7398 39.2964C43.9188 40.4474 43.6119 41.5984 42.8957 42.4422C42.1541 43.3119 41.0799 43.7979 39.9546 43.7979H4.04548C2.92012 43.7979 1.84592 43.3119 1.1043 42.4422C0.388168 41.5983 0.081254 40.4474 0.260287 39.3476C0.260287 39.3476 2.75968 27.3843 2.80384 27.1732Z" fill="#4086F4"/>
<path d="M2.80443 27.1704C2.80443 27.1704 2.80426 27.1713 2.80384 27.1732H41.1963L43.7398 14.9991C43.9188 13.8993 43.6119 12.7484 42.8957 11.9043C42.1541 11.0348 41.0799 10.5488 39.9546 10.5488H4.04548C2.92012 10.5488 1.84592 11.0348 1.1043 11.9043C0.388168 12.7484 0.081254 13.8993 0.260287 15.0502L2.80443 27.1704Z" fill="#4175DF"/>
<path d="M9.21191 7.8208C9.91818 7.8208 10.4907 7.24826 10.4907 6.54199C10.4907 5.83573 9.91818 5.26318 9.21191 5.26318C8.50565 5.26318 7.93311 5.83573 7.93311 6.54199C7.93311 7.24826 8.50565 7.8208 9.21191 7.8208Z" fill="#FFF5F5"/>
<path d="M34.7881 7.8208C35.4944 7.8208 36.0669 7.24826 36.0669 6.54199C36.0669 5.83573 35.4944 5.26318 34.7881 5.26318C34.0818 5.26318 33.5093 5.83573 33.5093 6.54199C33.5093 7.24826 34.0818 7.8208 34.7881 7.8208Z" fill="#E3E7EA"/>
<path d="M16.8846 36.125C14.7216 36.125 12.7821 34.7551 12.0616 32.7144C11.8255 32.0488 12.1739 31.3182 12.8409 31.0834C13.504 30.8462 14.2371 31.1971 14.4719 31.8627C14.8328 32.8818 15.803 33.5674 16.8846 33.5674C18.2945 33.5674 19.4422 32.4197 19.4422 31.0098C19.4422 29.5998 18.2945 28.4521 16.8846 28.4521H15.2948C14.5893 28.4521 14.016 27.8802 14.016 27.1733C14.016 26.4665 14.5893 25.8945 15.2948 25.8945H16.8846C18.2945 25.8945 19.4422 24.7468 19.4422 23.3369C19.4422 21.927 18.2945 20.7793 16.8846 20.7793C15.803 20.7793 14.8328 21.4649 14.4718 22.4839C14.237 23.1508 13.5027 23.5005 12.8408 23.2633C12.1739 23.0285 11.8255 22.2979 12.0615 21.6323C12.7821 19.5916 14.7216 18.2217 16.8846 18.2217C19.7057 18.2217 21.9998 20.5158 21.9998 23.3369C21.9998 24.863 21.3279 26.2355 20.2639 27.1733C21.3279 28.1112 21.9998 29.4837 21.9998 31.0098C21.9998 33.8309 19.7057 36.125 16.8846 36.125Z" fill="#FFF5F5"/>
<path d="M12.8408 23.2633C13.5027 23.5005 14.237 23.1509 14.4718 22.4839C14.8327 21.4649 15.8031 20.7793 16.8845 20.7793C18.2945 20.7793 19.4421 21.927 19.4421 23.3369C19.4421 24.7468 18.2945 25.8945 16.8845 25.8945H15.2948C14.5892 25.8945 14.0161 26.4664 14.016 27.1732H20.2641C21.328 26.2353 21.9998 24.8629 21.9998 23.3369C21.9998 20.5158 19.7057 18.2217 16.8845 18.2217C14.7215 18.2217 12.7821 19.5916 12.0615 21.6323C11.8255 22.2979 12.1739 23.0285 12.8408 23.2633Z" fill="#E3E7EA"/>
<path d="M29.6737 36.1248C28.9669 36.1248 28.3949 35.5529 28.3949 34.846V21.8893L26.5466 23.1219C25.9571 23.5115 25.1641 23.3542 24.7732 22.7673C24.381 22.1791 24.5397 21.3861 25.1279 20.9939L28.9643 18.4363C29.3565 18.1752 29.8622 18.1503 30.2769 18.3726C30.6927 18.5949 30.9525 19.0283 30.9525 19.5003V34.846C30.9525 35.5529 30.3805 36.1248 29.6737 36.1248Z" fill="#FFF5F5"/>
<path d="M26.5466 23.1224L28.3949 21.8898V27.1734H30.9525V19.5008C30.9525 19.0287 30.6927 18.5954 30.2769 18.3731C29.8623 18.1508 29.3565 18.1758 28.9643 18.4367L25.1279 20.9944C24.5397 21.3865 24.381 22.1795 24.7732 22.7677C25.1642 23.3547 25.9571 23.5121 26.5466 23.1224Z" fill="#E3E7EA"/>
</g>
<defs>
<clipPath id="clip0_9_2634">
<rect width="43.65" height="43.65" fill="white" transform="translate(0.174988 0.147949)"/>
</clipPath>
</defs>
</svg>
