<svg width="51" height="40" viewBox="0 0 51 40" fill="none" xmlns="http://www.w3.org/2000/svg">
<path d="M0 3.40058V12.4821C0 15.2481 3.45437 16.7233 5.56538 14.7871L15.6406 5.70554C17.8476 3.72327 16.4083 0.219727 13.3857 0.219727H3.31044C1.4873 0.219727 0 1.6488 0 3.40058Z" fill="#5986EF"/>
<path d="M47.6896 0.219727H37.6143C34.6397 0.219727 33.1524 3.72327 35.3594 5.70554L45.4346 14.7871C47.5456 16.6772 51 15.2481 51 12.4821V3.40058C51 1.6488 49.5127 0.219727 47.6896 0.219727Z" fill="#5986EF"/>
<path d="M27.7789 22.3935L45.4346 38.3438C47.5456 40.2339 51 38.8048 51 36.0389V26.8651C51 25.9892 50.6162 25.1594 49.9445 24.5601L27.7789 4.50694C26.4835 3.35446 24.5165 3.35446 23.2211 4.50694L1.0555 24.5601C0.383819 25.1594 0 25.9892 0 26.8651V36.0389C0 38.8048 3.45437 40.28 5.56538 38.3438L23.2211 22.3935C24.5165 21.241 26.4835 21.241 27.7789 22.3935Z" fill="#5986EF"/>
</svg>
