<svg width="45" height="44" viewBox="0 0 45 44" fill="none" xmlns="http://www.w3.org/2000/svg">
<g clip-path="url(#clip0_9_2608)">
<path d="M42.8351 9.80786H23.7383C22.9853 9.80786 22.3742 10.419 22.3742 11.1719C22.3742 11.9249 22.9853 12.536 23.7383 12.536H38.8603L30.4795 19.0535L24.4694 15.2314L23.0071 17.5339L29.8274 21.8716C30.0484 22.0135 30.3049 22.0844 30.5586 22.0844C30.8532 22.0844 31.1506 21.9889 31.3961 21.798L41.4711 13.9601V31.6329H23.7383C22.9853 31.6329 22.3742 32.244 22.3742 32.9969C22.3742 33.7499 22.9853 34.361 23.7383 34.361H42.8351C43.5881 34.361 44.1992 33.7499 44.1992 32.9969V11.1719C44.1992 10.419 43.5881 9.80786 42.8351 9.80786Z" fill="#1976D2"/>
<path d="M24.6093 1.9374C24.2983 1.67823 23.8809 1.56637 23.4881 1.64822L1.66306 5.74041C1.0165 5.86044 0.549988 6.42244 0.549988 7.07991V37.0893C0.549988 37.744 1.0165 38.3088 1.66306 38.4288L23.4881 42.521C23.5699 42.5374 23.6545 42.5455 23.7391 42.5455C24.0555 42.5455 24.3638 42.4364 24.6093 42.2318C24.9231 41.9726 25.1031 41.5852 25.1031 41.1815V2.98773C25.1031 2.58124 24.9231 2.19657 24.6093 1.9374Z" fill="#2196F3"/>
<path d="M12.8273 31.6327C9.06798 31.6327 6.00702 27.9606 6.00702 23.4483C6.00702 18.936 9.06798 15.2639 12.8273 15.2639C16.5867 15.2639 19.6476 18.936 19.6476 23.4483C19.6476 27.9606 16.5867 31.6327 12.8273 31.6327ZM12.8273 17.992C10.5712 17.992 8.73514 20.4392 8.73514 23.4483C8.73514 26.4574 10.5712 28.9045 12.8273 28.9045C15.0835 28.9045 16.9195 26.4574 16.9195 23.4483C16.9195 20.4392 15.0835 17.992 12.8273 17.992Z" fill="#FAFAFA"/>
</g>
<defs>
<clipPath id="clip0_9_2608">
<rect width="43.65" height="43.65" fill="white" transform="translate(0.549988 0.258545)"/>
</clipPath>
</defs>
</svg>
