<svg width="45" height="44" viewBox="0 0 45 44" fill="none" xmlns="http://www.w3.org/2000/svg">
<g clip-path="url(#clip0_9_2595)">
<path d="M16.3793 23.4128C13.8611 23.4128 11.8124 25.4615 11.8124 27.9797V39.3921C11.8124 41.9103 13.8611 43.9589 16.3793 43.9589C18.8976 43.959 20.9462 41.9104 20.9462 39.3922V27.9797C20.9462 25.4615 18.8976 23.4128 16.3793 23.4128Z" fill="#FF4340"/>
<path d="M9.25654 23.4128H4.83527C2.39735 23.4128 0.414001 25.3963 0.414001 27.8341C0.414001 30.272 2.39743 32.2554 4.83527 32.2554C7.2731 32.2554 9.25654 30.2719 9.25654 27.8341V23.4128Z" fill="#FF4340"/>
<path d="M0.40033 16.2883C0.40033 18.8065 2.44898 20.8552 4.96721 20.8552H16.3796C18.8979 20.8552 20.9465 18.8065 20.9465 16.2883C20.9465 13.7701 18.8979 11.7214 16.3796 11.7214H4.96721C2.44898 11.7214 0.40033 13.7701 0.40033 16.2883H0.40033Z" fill="#36C6FF"/>
<path d="M16.5267 9.16358H20.9479V4.74231C20.9479 2.30439 18.9645 0.321045 16.5267 0.321045C14.0888 0.321045 12.1054 2.30448 12.1054 4.74231C12.1054 7.18015 14.0888 9.16358 16.5267 9.16358Z" fill="#36C6FF"/>
<path d="M28.0707 20.855C30.589 20.855 32.6376 18.8064 32.6376 16.2881V4.87572C32.6377 2.35749 30.589 0.308838 28.0707 0.308838C25.5525 0.308838 23.5038 2.35749 23.5038 4.87572V16.2881C23.5038 18.8064 25.5525 20.855 28.0707 20.855Z" fill="#0DC46E"/>
<path d="M35.1953 20.8555H39.6165C42.0544 20.8555 44.0378 18.872 44.0378 16.4342C44.0378 13.9963 42.0544 12.0129 39.6165 12.0129C37.1787 12.0129 35.1953 13.9964 35.1953 16.4342V20.8555Z" fill="#0DC46E"/>
<path d="M44.05 27.9797C44.05 25.4615 42.0014 23.4128 39.4832 23.4128H28.0707C25.5525 23.4128 23.5038 25.4615 23.5038 27.9797C23.5038 30.498 25.5525 32.5466 28.0707 32.5466H39.4831C42.0014 32.5467 44.05 30.498 44.05 27.9797Z" fill="#FDCB02"/>
<path d="M27.9251 35.104H23.5038V39.5253C23.5038 41.9632 25.4873 43.9465 27.9251 43.9465C30.363 43.9465 32.3464 41.9631 32.3464 39.5253C32.3464 37.0874 30.363 35.104 27.9251 35.104Z" fill="#FDCB02"/>
</g>
<defs>
<clipPath id="clip0_9_2595">
<rect width="43.65" height="43.65" fill="white" transform="translate(0.40033 0.308838)"/>
</clipPath>
</defs>
</svg>
